<svg width="31" height="36" viewBox="0 0 31 36" fill="none" xmlns="http://www.w3.org/2000/svg">
<path d="M30.6 26.5V8.9L15.3 0L0 8.9V26.5L15.3 35.4L30.6 26.5Z" fill="#053F65"/>
<path d="M27.6 24.8V10.6L15.3 3.4L2.9 10.6V24.8L15.3 32L27.6 24.8Z" fill="#0E83CD"/>
<path d="M8.92969 12.0573C9.35503 12.1059 9.71354 12.1424 10.0052 12.1667C10.2969 12.1788 10.5278 12.191 10.6979 12.2031C10.9045 12.2153 11.0686 12.2214 11.1901 12.2214C11.3967 12.2214 11.6337 12.2153 11.901 12.2031C12.1319 12.191 12.3993 12.1727 12.7031 12.1484C13.0191 12.112 13.3594 12.0573 13.724 11.9844C13.5538 12.1667 13.4141 12.3429 13.3047 12.513C13.1953 12.671 13.1102 12.8168 13.0495 12.9505C12.9766 13.0964 12.9158 13.23 12.8672 13.3516C12.8186 13.5095 12.7639 13.7526 12.7031 14.0807C12.6424 14.3602 12.5755 14.7552 12.5026 15.2656C12.4418 15.776 12.3628 16.4444 12.2656 17.2708C12.6788 17.283 13.0373 17.2891 13.3411 17.2891C13.645 17.2769 13.9002 17.2708 14.1068 17.2708H14.7083C14.8785 17.2587 15.0729 17.2465 15.2917 17.2344C15.6563 17.2222 16.2092 17.1858 16.9505 17.125C17.0113 16.566 17.0417 16.0859 17.0417 15.6849C17.0538 15.2717 17.0477 14.9253 17.0234 14.6458C16.9991 14.3299 16.9627 14.0625 16.9141 13.8437C16.8776 13.7222 16.8229 13.5764 16.75 13.4062C16.6892 13.2604 16.6042 13.0842 16.4948 12.8776C16.3976 12.6589 16.2639 12.3976 16.0938 12.0937C16.4097 12.1424 16.6892 12.1788 16.9323 12.2031C17.1875 12.2153 17.4002 12.2274 17.5703 12.2396C17.7648 12.2517 17.9288 12.2578 18.0625 12.2578C18.1962 12.2578 18.3724 12.2517 18.5911 12.2396C18.7734 12.2274 18.9983 12.2214 19.2656 12.2214C19.533 12.2092 19.8611 12.191 20.25 12.1667C20.1528 12.3368 20.0677 12.513 19.9948 12.6953C19.9219 12.8776 19.8611 13.0417 19.8125 13.1875C19.7639 13.3576 19.7153 13.5278 19.6667 13.6979C19.6059 13.9531 19.5512 14.3238 19.5026 14.8099C19.4661 15.296 19.4297 15.8368 19.3932 16.4323C19.3689 17.0278 19.3446 17.6476 19.3203 18.2917C19.3082 18.9358 19.296 19.5434 19.2839 20.1146C19.2839 20.6858 19.2899 21.1962 19.3021 21.6458C19.3142 22.0833 19.3385 22.3932 19.375 22.5755C19.4115 22.7943 19.4722 23.0191 19.5573 23.25C19.6302 23.4566 19.7274 23.6814 19.849 23.9245C19.9705 24.1554 20.1285 24.3741 20.3229 24.5807L15.9297 24.9089C16.112 24.7387 16.2578 24.5747 16.3672 24.4167C16.4766 24.2465 16.5616 24.1007 16.6224 23.9792C16.6832 23.8455 16.7257 23.7179 16.75 23.5964C16.7622 23.4505 16.7804 23.1953 16.8047 22.8307C16.829 22.5269 16.8533 22.0955 16.8776 21.5365C16.9019 20.9774 16.9262 20.2361 16.9505 19.3125C16.7804 19.3125 16.5738 19.3186 16.3307 19.3307C16.0998 19.3307 15.8811 19.3368 15.6745 19.349C15.4314 19.3611 15.1762 19.3672 14.9089 19.3672C14.6415 19.3793 14.362 19.3915 14.0703 19.4036C13.8273 19.428 13.5538 19.4523 13.25 19.4766C12.9583 19.4887 12.6667 19.5069 12.375 19.5312C12.3507 20.0417 12.3507 20.4913 12.375 20.8802C12.3993 21.2569 12.4358 21.579 12.4844 21.8464C12.533 22.1623 12.5938 22.4358 12.6667 22.6667C12.7396 22.8854 12.8186 23.1042 12.9036 23.3229C12.9766 23.5174 13.0616 23.724 13.1589 23.9427C13.2682 24.1615 13.3776 24.3559 13.487 24.526C13.2561 24.5017 13.0434 24.4835 12.849 24.4714C12.6545 24.447 12.4844 24.4227 12.3385 24.3984C12.1684 24.3863 12.0043 24.3741 11.8464 24.362C11.6884 24.362 11.5 24.3559 11.2812 24.3438C11.0868 24.3316 10.8437 24.3255 10.5521 24.3255C10.2604 24.3134 9.92014 24.3073 9.53125 24.3073C9.76215 24.0764 9.94444 23.8516 10.0781 23.6328C10.224 23.4019 10.3273 23.1953 10.388 23.013C10.4609 22.7943 10.5095 22.5938 10.5339 22.4115C10.546 22.2535 10.5521 21.9557 10.5521 21.5182C10.5642 21.0807 10.5642 20.5825 10.5521 20.0234C10.5521 19.4523 10.546 18.8568 10.5339 18.237C10.5217 17.605 10.5035 17.0156 10.4792 16.4688C10.467 15.9219 10.4488 15.454 10.4245 15.0651C10.4123 14.6641 10.4002 14.4149 10.388 14.3177C10.3273 14.099 10.2361 13.862 10.1146 13.6068C10.0052 13.4002 9.85937 13.1632 9.67708 12.8958C9.49479 12.6163 9.24566 12.3368 8.92969 12.0573Z" fill="white"/>
</svg>
